<svg xmlns="http://www.w3.org/2000/svg" viewBox="0 0 23 23"><path d="M1 1h7v7h-7zM10 1h2v1h-2zM13 1h1v3h-1zM15 1h7v7h-7zM2 2v5h5v-5zM16 2v5h5v-5zM3 3h3v3h-3zM9 3h1v6h-1zM11 3h1v1h1v1h-2zM17 3h3v3h-3zM13 5h1v1h-1zM11 6h2v1h-1v2h-1zM13 7h1v1h-1zM1 9h1v2h-1zM3 9h5v1h-5zM12 9h1v1h-1zM15 9h5v1h2v1h-1v1h1v1h-1v1h1v1h-1v2h1v1h-2v-1h-1v-1h1v-1h-1v1h-1v-1h-4v-1h1v-1h1v1h1v-2h1v-1h-2v-1h-1zM9 10h3v1h-1v1h-1v-1h-1zM13 10h2v1h1v1h-1v1h-1v-1h-1zM2 11h1v1h-1zM4 11h5v2h2v2h3v1h-1v1h-1v1h-1v-2h-1v-1h-1v-1h-5v-1h4v-1h-4zM19 11v1h1v-1zM3 12h1v1h-1zM11 12h2v2h-1v-1h-1zM1 13h2v1h-2zM19 13v1h1v-1zM1 15h7v7h-7zM2 16v5h5v-5zM9 16h1v2h1v1h-1v1h-1zM14 16h1v1h-1zM17 16h1v2h1v1h-3v-1h1zM3 17h3v3h-3zM13 17h1v1h-1zM15 17h1v1h-1zM14 18h1v2h-3v1h1v1h-2v-1h-1v-1h1v-1h3zM17 20h3v1h-3zM9 21h1v1h-1zM15 21h1v1h-1zM20 21h1v1h-1z"/></svg>